<?xml version="1.0" encoding="UTF-8"?>
<!DOCTYPE svg PUBLIC "-//W3C//DTD SVG 1.1//EN" "http://www.w3.org/Graphics/SVG/1.1/DTD/svg11.dtd">
<svg xmlns="http://www.w3.org/2000/svg" version="1.1" width="376px" height="127px" style="shape-rendering:geometricPrecision; text-rendering:geometricPrecision; image-rendering:optimizeQuality; fill-rule:evenodd; clip-rule:evenodd" xmlns:xlink="http://www.w3.org/1999/xlink">
<g><path style="opacity:1" fill="#fbfbfb" d="M -0.5,-0.5 C 124.833,-0.5 250.167,-0.5 375.5,-0.5C 375.5,41.8333 375.5,84.1667 375.5,126.5C 250.167,126.5 124.833,126.5 -0.5,126.5C -0.5,84.1667 -0.5,41.8333 -0.5,-0.5 Z"/></g>
<g><path style="opacity:1" fill="#fef5e6" d="M 101.5,18.5 C 100.391,18.4431 99.391,18.1098 98.5,17.5C 98.1667,17.5 97.8333,17.5 97.5,17.5C 88.5451,12.4281 79.2118,11.4281 69.5,14.5C 69.5106,12.9826 70.1772,11.8159 71.5,11C 77.2182,10.7891 82.8848,10.2891 88.5,9.5C 90.2199,10.9549 92.2199,11.7883 94.5,12C 95.8333,12.6667 95.8333,13.3333 94.5,14C 97.6146,14.5414 99.948,16.0414 101.5,18.5 Z"/></g>
<g><path style="opacity:1" fill="#ce743e" d="M 97.5,17.5 C 93.0057,17.1358 88.6723,16.3025 84.5,15C 80.1667,14.3333 75.8333,14.3333 71.5,15C 68.2365,18.7729 64.5698,21.9396 60.5,24.5C 60.8333,23.8333 61.1667,23.1667 61.5,22.5C 64.5,20.1667 67.1667,17.5 69.5,14.5C 79.2118,11.4281 88.5451,12.4281 97.5,17.5 Z"/></g>
<g><path style="opacity:1" fill="#d46f37" d="M 98.5,17.5 C 99.391,18.1098 100.391,18.4431 101.5,18.5C 102.29,19.4013 103.29,20.0679 104.5,20.5C 104.5,21.1667 104.833,21.5 105.5,21.5C 105.5,22.8333 104.833,23.5 103.5,23.5C 96.5244,22.7684 89.5244,22.4351 82.5,22.5C 87.3958,20.5539 92.7291,19.8872 98.5,20.5C 98.5,19.5 98.5,18.5 98.5,17.5 Z"/></g>
<g><path style="opacity:1" fill="#be835d" d="M 105.5,21.5 C 106.627,22.1217 107.627,22.955 108.5,24C 106.613,24.7796 104.946,24.6129 103.5,23.5C 104.833,23.5 105.5,22.8333 105.5,21.5 Z"/></g>
<g><path style="opacity:1" fill="#d27440" d="M 81.5,22.5 C 76.6752,23.9066 72.0085,25.9066 67.5,28.5C 67.3433,27.1266 67.51,25.7932 68,24.5C 68.5613,25.0219 69.228,25.3552 70,25.5C 73.603,23.5761 77.4363,22.5761 81.5,22.5 Z"/></g>
<g><path style="opacity:1" fill="#fee7d2" d="M 61.5,22.5 C 61.1667,23.1667 60.8333,23.8333 60.5,24.5C 56.8333,27.5 53.5,30.8333 50.5,34.5C 50.1667,34.5 49.8333,34.5 49.5,34.5C 51.1331,31.8309 52.2998,28.8309 53,25.5C 53.3076,26.3081 53.8076,26.9747 54.5,27.5C 55.7589,24.23 58.0922,22.5633 61.5,22.5 Z"/></g>
<g><path style="opacity:1" fill="#818284" d="M 178.5,25.5 C 188.233,25.1091 197.9,25.6091 207.5,27C 215.295,32.2696 216.462,38.7696 211,46.5C 208.696,48.0685 206.196,49.2352 203.5,50C 209.017,55.5388 213.684,61.7054 217.5,68.5C 213.833,69.8333 210.167,69.8333 206.5,68.5C 203.072,61.5826 198.405,55.7493 192.5,51C 190.866,50.5065 189.199,50.3398 187.5,50.5C 187.5,56.8333 187.5,63.1667 187.5,69.5C 184.5,69.5 181.5,69.5 178.5,69.5C 178.5,54.8333 178.5,40.1667 178.5,25.5 Z"/></g>
<g><path style="opacity:1" fill="#808183" d="M 222.5,25.5 C 225.5,25.5 228.5,25.5 231.5,25.5C 231.333,36.1719 231.5,46.8385 232,57.5C 235.366,62.609 239.866,63.7757 245.5,61C 247.004,59.5093 247.837,57.676 248,55.5C 248.5,45.5056 248.666,35.5056 248.5,25.5C 251.167,25.5 253.833,25.5 256.5,25.5C 256.667,37.1714 256.5,48.8381 256,60.5C 252.804,67.5181 247.304,70.5181 239.5,69.5C 232.592,70.13 227.426,67.4633 224,61.5C 222.609,49.5534 222.109,37.5534 222.5,25.5 Z"/></g>
<g><path style="opacity:1" fill="#818283" d="M 266.5,25.5 C 274.174,25.3336 281.841,25.5003 289.5,26C 297.419,28.663 300.586,34.163 299,42.5C 297.932,47.2353 295.099,50.4019 290.5,52C 285.511,52.4993 280.511,52.6659 275.5,52.5C 274.512,57.6405 274.179,62.9738 274.5,68.5C 271.833,68.5 269.167,68.5 266.5,68.5C 266.5,54.1667 266.5,39.8333 266.5,25.5 Z"/></g>
<g><path style="opacity:1" fill="#828284" d="M 143.5,25.5 C 148.844,25.334 154.177,25.5006 159.5,26C 165.312,28.2998 168.646,32.4665 169.5,38.5C 166.518,38.9629 163.518,39.2962 160.5,39.5C 160.201,36.3579 158.534,34.1912 155.5,33C 144.593,31.2382 139.26,35.9048 139.5,47C 140.172,60.6826 146.839,65.0159 159.5,60C 161.229,58.2111 161.896,56.0444 161.5,53.5C 158.167,53.5 154.833,53.5 151.5,53.5C 151.5,50.8333 151.5,48.1667 151.5,45.5C 157.833,45.5 164.167,45.5 170.5,45.5C 170.666,51.5092 170.499,57.5092 170,63.5C 159.422,70.7305 148.589,71.2305 137.5,65C 129.624,55.2954 128.457,44.7954 134,33.5C 136.772,30.2166 139.939,27.5499 143.5,25.5 Z"/></g>
<g><path style="opacity:1" fill="#bdbdbe" d="M 266.5,25.5 C 266.5,39.8333 266.5,54.1667 266.5,68.5C 269.167,68.5 271.833,68.5 274.5,68.5C 274.179,62.9738 274.512,57.6405 275.5,52.5C 275.5,58.1667 275.5,63.8333 275.5,69.5C 272.167,69.5 268.833,69.5 265.5,69.5C 265.171,54.6572 265.504,39.9905 266.5,25.5 Z"/></g>
<g><path style="opacity:1" fill="#fdf6ed" d="M 104.5,20.5 C 109.14,21.6722 112.473,24.5055 114.5,29C 112.224,29.2967 110.057,28.7967 108,27.5C 106.635,27.8443 105.468,28.5109 104.5,29.5C 101.656,27.4621 98.6565,27.1288 95.5,28.5C 94.2888,27.7261 94.2888,26.8928 95.5,26C 97.1667,25.6667 98.8333,25.3333 100.5,25C 94.8333,24.3333 89.1667,24.3333 83.5,25C 77.6646,26.7081 72.3313,28.7081 67.5,31C 68.6776,31.9669 70.011,32.4669 71.5,32.5C 69.8513,33.6477 68.3513,34.981 67,36.5C 66.2904,35.0267 65.1238,34.3601 63.5,34.5C 64.6005,33.3951 65.2671,32.0618 65.5,30.5C 65.8333,29.5 66.5,28.8333 67.5,28.5C 72.0085,25.9066 76.6752,23.9066 81.5,22.5C 81.8333,22.5 82.1667,22.5 82.5,22.5C 89.5244,22.4351 96.5244,22.7684 103.5,23.5C 104.946,24.6129 106.613,24.7796 108.5,24C 107.627,22.955 106.627,22.1217 105.5,21.5C 104.833,21.5 104.5,21.1667 104.5,20.5 Z"/></g>
<g><path style="opacity:1" fill="#e4f8d8" d="M 91.5,33.5 C 96.4103,32.5872 100.41,33.9205 103.5,37.5C 99.4097,36.1049 95.4097,34.7716 91.5,33.5 Z"/></g>
<g><path style="opacity:1" fill="#fafafa" d="M 200.5,33.5 C 205.429,34.8198 206.596,37.8198 204,42.5C 202.989,43.3366 201.822,43.67 200.5,43.5C 196.5,43.5 192.5,43.5 188.5,43.5C 188.5,40.1667 188.5,36.8333 188.5,33.5C 192.5,33.5 196.5,33.5 200.5,33.5 Z"/></g>
<g><path style="opacity:1" fill="#f9fafa" d="M 284.5,33.5 C 289.288,34.123 291.121,36.7897 290,41.5C 288.786,43.0488 287.286,44.2155 285.5,45C 282.183,45.4983 278.85,45.665 275.5,45.5C 275.5,41.5 275.5,37.5 275.5,33.5C 278.5,33.5 281.5,33.5 284.5,33.5 Z"/></g>
<g><path style="opacity:1" fill="#c4c5c7" d="M 284.5,33.5 C 281.5,33.5 278.5,33.5 275.5,33.5C 275.5,37.5 275.5,41.5 275.5,45.5C 274.515,41.3656 274.182,37.0323 274.5,32.5C 278.042,32.1872 281.375,32.5206 284.5,33.5 Z"/></g>
<g><path style="opacity:1" fill="#68a455" d="M 90.5,33.5 C 90.8333,33.5 91.1667,33.5 91.5,33.5C 95.4097,34.7716 99.4097,36.1049 103.5,37.5C 105.806,39.1394 107.806,41.1394 109.5,43.5C 106.873,42.9084 104.206,42.5751 101.5,42.5C 101.759,39.5203 100.426,37.687 97.5,37C 95.0982,36.1859 92.7649,36.3526 90.5,37.5C 91.3202,39.1112 92.6536,39.7778 94.5,39.5C 95.6337,43.0448 97.3004,46.3781 99.5,49.5C 102.177,57.3037 103.01,65.3037 102,73.5C 101.768,74.7375 101.268,75.7375 100.5,76.5C 102.227,68.499 101.56,60.8324 98.5,53.5C 97.1722,48.8349 94.8389,44.8349 91.5,41.5C 88.9405,38.5421 85.9405,36.0421 82.5,34C 85.146,33.5026 87.8127,33.3359 90.5,33.5 Z"/></g>
<g><path style="opacity:1" fill="#ecfae4" d="M 90.5,33.5 C 87.8127,33.3359 85.146,33.5026 82.5,34C 85.9405,36.0421 88.9405,38.5421 91.5,41.5C 88.622,39.2034 85.2886,37.8701 81.5,37.5C 81.5,35.8333 81.5,34.1667 81.5,32.5C 84.7131,32.19 87.7131,32.5233 90.5,33.5 Z"/></g>
<g><path style="opacity:1" fill="#d8d9da" d="M 200.5,33.5 C 196.5,33.5 192.5,33.5 188.5,33.5C 188.5,36.8333 188.5,40.1667 188.5,43.5C 192.5,43.5 196.5,43.5 200.5,43.5C 196.366,44.4849 192.032,44.8182 187.5,44.5C 187.5,40.5 187.5,36.5 187.5,32.5C 192.032,32.1818 196.366,32.5151 200.5,33.5 Z"/></g>
<g><path style="opacity:1" fill="#828284" d="M 317.5,25.5 C 340.649,24.0859 349.483,34.7526 344,57.5C 338.859,67.4496 330.692,71.283 319.5,69C 311.565,66.7316 306.732,61.5649 305,53.5C 302.43,40.9844 306.597,31.6511 317.5,25.5 Z"/></g>
<g><path style="opacity:1" fill="#fafafa" d="M 321.5,32.5 C 328.128,31.231 332.961,33.5644 336,39.5C 337.141,46.0841 336.474,52.4174 334,58.5C 324.71,65.2675 318.043,63.2675 314,52.5C 313.19,47.7426 313.524,43.0759 315,38.5C 316.494,35.6865 318.66,33.6865 321.5,32.5 Z"/></g>
<g><path style="opacity:1" fill="#d78351" d="M 49.5,34.5 C 49.8333,34.5 50.1667,34.5 50.5,34.5C 44.8333,40.5 39.1667,46.5 33.5,52.5C 32.5233,55.2869 32.19,58.2869 32.5,61.5C 31.2134,57.9351 31.2134,54.2684 32.5,50.5C 38.1667,45.1667 43.8333,39.8333 49.5,34.5 Z"/></g>
<g><path style="opacity:1" fill="#eef9e4" d="M 103.5,37.5 C 105.937,37.886 107.937,39.0527 109.5,41C 111.598,41.0139 113.431,40.8472 115,40.5C 116.688,41.3247 116.855,42.3247 115.5,43.5C 116.154,45.1151 116.654,46.7818 117,48.5C 119.656,52.1438 121.489,56.1438 122.5,60.5C 121.833,60.1667 121.167,59.8333 120.5,59.5C 119.186,54.8677 116.853,50.8677 113.5,47.5C 112.5,45.8333 111.167,44.5 109.5,43.5C 107.806,41.1394 105.806,39.1394 103.5,37.5 Z"/></g>
<g><path style="opacity:1" fill="#59a944" d="M 109.5,43.5 C 111.167,44.5 112.5,45.8333 113.5,47.5C 114.111,50.6623 114.778,53.829 115.5,57C 120.65,62.2717 121.817,68.4383 119,75.5C 113.5,80.3333 108.333,85.5 103.5,91C 102.004,91.5074 100.837,91.0074 100,89.5C 99.5,90 99,90.5 98.5,91C 97.503,92.9024 97.503,95.069 98.5,97.5C 96.5,97.5 94.5,97.5 92.5,97.5C 92.5721,94.4475 93.5721,91.7808 95.5,89.5C 96.1667,87.5 96.8333,85.5 97.5,83.5C 99.0652,81.4907 100.065,79.1573 100.5,76.5C 101.268,75.7375 101.768,74.7375 102,73.5C 103.01,65.3037 102.177,57.3037 99.5,49.5C 97.3004,46.3781 95.6337,43.0448 94.5,39.5C 92.6536,39.7778 91.3202,39.1112 90.5,37.5C 92.7649,36.3526 95.0982,36.1859 97.5,37C 100.426,37.687 101.759,39.5203 101.5,42.5C 104.206,42.5751 106.873,42.9084 109.5,43.5 Z"/></g>
<g><path style="opacity:1" fill="#e56624" d="M 97.5,17.5 C 97.8333,17.5 98.1667,17.5 98.5,17.5C 98.5,18.5 98.5,19.5 98.5,20.5C 92.7291,19.8872 87.3958,20.5539 82.5,22.5C 82.1667,22.5 81.8333,22.5 81.5,22.5C 77.4363,22.5761 73.603,23.5761 70,25.5C 69.228,25.3552 68.5613,25.0219 68,24.5C 67.51,25.7932 67.3433,27.1266 67.5,28.5C 66.5,28.8333 65.8333,29.5 65.5,30.5C 58.868,36.1012 54.5347,43.1012 52.5,51.5C 51.1952,53.3972 50.5286,55.7305 50.5,58.5C 50.4601,62.944 51.1268,67.2774 52.5,71.5C 52.8684,73.1753 53.8684,74.1753 55.5,74.5C 56.8466,77.1932 58.1799,79.8599 59.5,82.5C 60.1667,85.1667 61.8333,86.8333 64.5,87.5C 64.5394,88.5832 64.8728,89.5832 65.5,90.5C 63.604,91.4656 61.604,91.7989 59.5,91.5C 56.4582,91.2671 53.7916,90.2671 51.5,88.5C 51.0269,87.0937 50.0269,86.427 48.5,86.5C 44.5,84.5 41.5,81.5 39.5,77.5C 35.41,69.6581 33.41,61.3248 33.5,52.5C 39.1667,46.5 44.8333,40.5 50.5,34.5C 53.5,30.8333 56.8333,27.5 60.5,24.5C 64.5698,21.9396 68.2365,18.7729 71.5,15C 75.8333,14.3333 80.1667,14.3333 84.5,15C 88.6723,16.3025 93.0057,17.1358 97.5,17.5 Z"/></g>
<g><path style="opacity:1" fill="#68a654" d="M 113.5,47.5 C 116.853,50.8677 119.186,54.8677 120.5,59.5C 121.392,64.4376 121.726,69.4376 121.5,74.5C 118.167,78.1667 114.833,81.8333 111.5,85.5C 107.141,89.5282 102.807,93.5282 98.5,97.5C 97.503,95.069 97.503,92.9024 98.5,91C 99,90.5 99.5,90 100,89.5C 100.837,91.0074 102.004,91.5074 103.5,91C 108.333,85.5 113.5,80.3333 119,75.5C 121.817,68.4383 120.65,62.2717 115.5,57C 114.778,53.829 114.111,50.6623 113.5,47.5 Z"/></g>
<g><path style="opacity:1" fill="#fef2de" d="M 32.5,50.5 C 31.2134,54.2684 31.2134,57.9351 32.5,61.5C 32.8925,65.3424 33.8925,69.0091 35.5,72.5C 34.325,72.719 33.325,72.3857 32.5,71.5C 31.1707,64.8786 30.1707,58.2119 29.5,51.5C 30.325,50.6143 31.325,50.281 32.5,50.5 Z"/></g>
<g><path style="opacity:1" fill="#ca7749" d="M 52.5,52.5 C 52.4126,57.5365 52.746,62.5365 53.5,67.5C 52.0092,64.8136 51.3425,61.8136 51.5,58.5C 51.5046,56.3035 51.838,54.3035 52.5,52.5 Z"/></g>
<g><path style="opacity:1" fill="#ffefda" d="M 65.5,30.5 C 65.2671,32.0618 64.6005,33.3951 63.5,34.5C 61.5491,35.7158 60.0491,37.3825 59,39.5C 58.158,42.6889 56.8247,45.6889 55,48.5C 54.5004,55.4921 54.3337,62.4921 54.5,69.5C 53.6618,69.1583 53.3284,68.4916 53.5,67.5C 52.746,62.5365 52.4126,57.5365 52.5,52.5C 52.5,52.1667 52.5,51.8333 52.5,51.5C 54.5347,43.1012 58.868,36.1012 65.5,30.5 Z"/></g>
<g><path style="opacity:1" fill="#d86c32" d="M 52.5,51.5 C 52.5,51.8333 52.5,52.1667 52.5,52.5C 51.838,54.3035 51.5046,56.3035 51.5,58.5C 51.3425,61.8136 52.0092,64.8136 53.5,67.5C 53.3284,68.4916 53.6618,69.1583 54.5,69.5C 54.6287,71.2161 54.962,72.8828 55.5,74.5C 53.8684,74.1753 52.8684,73.1753 52.5,71.5C 51.1268,67.2774 50.4601,62.944 50.5,58.5C 50.5286,55.7305 51.1952,53.3972 52.5,51.5 Z"/></g>
<g><path style="opacity:1" fill="#cde7bd" d="M 120.5,59.5 C 121.167,59.8333 121.833,60.1667 122.5,60.5C 122.819,65.3633 122.486,70.03 121.5,74.5C 121.726,69.4376 121.392,64.4376 120.5,59.5 Z"/></g>
<g><path style="opacity:1" fill="#d07037" d="M 33.5,52.5 C 33.41,61.3248 35.41,69.6581 39.5,77.5C 37.9263,76.0158 36.593,74.3492 35.5,72.5C 33.8925,69.0091 32.8925,65.3424 32.5,61.5C 32.19,58.2869 32.5233,55.2869 33.5,52.5 Z"/></g>
<g><path style="opacity:1" fill="#e1f9d5" d="M 98.5,53.5 C 101.56,60.8324 102.227,68.499 100.5,76.5C 100.065,79.1573 99.0652,81.4907 97.5,83.5C 98.9795,78.1262 99.9795,72.6262 100.5,67C 99.7502,62.504 99.0835,58.004 98.5,53.5 Z"/></g>
<g><path style="opacity:1" fill="#bebebe" d="M 213.5,80.5 C 213.5,79.5 213.5,78.5 213.5,77.5C 209.5,77.5 205.5,77.5 201.5,77.5C 201.5,78.5 201.5,79.5 201.5,80.5C 200.566,79.4324 200.232,78.099 200.5,76.5C 205.167,76.5 209.833,76.5 214.5,76.5C 214.768,78.099 214.434,79.4324 213.5,80.5 Z"/></g>
<g><path style="opacity:1" fill="#868688" d="M 134.5,76.5 C 139.494,75.8129 142.494,77.8129 143.5,82.5C 141.325,82.3178 139.325,81.6511 137.5,80.5C 136,80.4528 135,81.1195 134.5,82.5C 137.183,84.2643 140.016,85.931 143,87.5C 145.334,95.8344 142.167,99.0011 133.5,97C 131.081,95.4912 130.081,93.3245 130.5,90.5C 131.552,90.3505 132.552,90.5172 133.5,91C 134.098,93.048 135.431,94.2147 137.5,94.5C 140.396,93.9763 141.063,92.4763 139.5,90C 134.815,89.3483 131.815,86.8483 130.5,82.5C 130.937,79.775 132.27,77.775 134.5,76.5 Z"/></g>
<g><path style="opacity:1" fill="#898989" d="M 213.5,80.5 C 212.167,80.5 210.833,80.5 209.5,80.5C 209.5,86.1667 209.5,91.8333 209.5,97.5C 208.167,97.5 206.833,97.5 205.5,97.5C 205.5,91.8333 205.5,86.1667 205.5,80.5C 204.167,80.5 202.833,80.5 201.5,80.5C 201.5,79.5 201.5,78.5 201.5,77.5C 205.5,77.5 209.5,77.5 213.5,77.5C 213.5,78.5 213.5,79.5 213.5,80.5 Z"/></g>
<g><path style="opacity:1" fill="#808081" d="M 317.5,77.5 C 321.833,77.5 326.167,77.5 330.5,77.5C 330.5,78.5 330.5,79.5 330.5,80.5C 328.833,80.5 327.167,80.5 325.5,80.5C 325.5,86.1667 325.5,91.8333 325.5,97.5C 324.5,97.5 323.5,97.5 322.5,97.5C 322.5,91.8333 322.5,86.1667 322.5,80.5C 320.833,80.5 319.167,80.5 317.5,80.5C 317.5,79.5 317.5,78.5 317.5,77.5 Z"/></g>
<g><path style="opacity:1" fill="#818182" d="M 333.5,77.5 C 337.5,77.5 341.5,77.5 345.5,77.5C 345.5,78.5 345.5,79.5 345.5,80.5C 342.5,80.5 339.5,80.5 336.5,80.5C 336.5,82.1667 336.5,83.8333 336.5,85.5C 339.5,85.5 342.5,85.5 345.5,85.5C 345.5,86.5 345.5,87.5 345.5,88.5C 342.5,88.5 339.5,88.5 336.5,88.5C 336.5,90.5 336.5,92.5 336.5,94.5C 339.833,94.5 343.167,94.5 346.5,94.5C 346.5,95.5 346.5,96.5 346.5,97.5C 342.167,97.5 337.833,97.5 333.5,97.5C 333.5,90.8333 333.5,84.1667 333.5,77.5 Z"/></g>
<g><path style="opacity:1" fill="#c3c3c4" d="M 172.5,77.5 C 169.5,77.5 166.5,77.5 163.5,77.5C 163.5,84.1667 163.5,90.8333 163.5,97.5C 162.509,90.6866 162.175,83.6866 162.5,76.5C 166.042,76.1872 169.375,76.5206 172.5,77.5 Z"/></g>
<g><path style="opacity:1" fill="#868687" d="M 178.5,77.5 C 179.675,77.281 180.675,77.6143 181.5,78.5C 183.102,82.8069 184.602,87.1402 186,91.5C 187.485,86.8924 188.652,82.2258 189.5,77.5C 190.978,77.238 192.311,77.5713 193.5,78.5C 191.698,84.5738 189.698,90.5738 187.5,96.5C 186.311,97.4287 184.978,97.762 183.5,97.5C 181.836,90.8394 180.169,84.1727 178.5,77.5 Z"/></g>
<g><path style="opacity:1" fill="#b9babb" d="M 159.5,77.5 C 155.5,77.5 151.5,77.5 147.5,77.5C 147.5,84.1667 147.5,90.8333 147.5,97.5C 146.509,90.6866 146.175,83.6866 146.5,76.5C 151.032,76.1818 155.366,76.5151 159.5,77.5 Z"/></g>
<g><path style="opacity:1" fill="#858587" d="M 216.5,77.5 C 220.514,77.3345 224.514,77.5012 228.5,78C 231.631,82.43 230.964,86.0966 226.5,89C 228.7,91.2336 230.533,93.7336 232,96.5C 234.265,90.5381 236.432,84.5381 238.5,78.5C 239.833,77.1667 241.167,77.1667 242.5,78.5C 244.908,84.7239 246.908,91.0572 248.5,97.5C 245.53,97.2542 244.197,95.5876 244.5,92.5C 242.143,92.3367 239.81,92.5034 237.5,93C 235.414,97.0382 232.08,98.3716 227.5,97C 226.206,94.913 225.039,92.7463 224,90.5C 222.989,89.6634 221.822,89.33 220.5,89.5C 220.5,92.1667 220.5,94.8333 220.5,97.5C 219.167,97.5 217.833,97.5 216.5,97.5C 216.5,90.8333 216.5,84.1667 216.5,77.5 Z"/></g>
<g><path style="opacity:1" fill="#f8f8fa" d="M 220.5,80.5 C 222.527,80.3379 224.527,80.5045 226.5,81C 227.833,82.3333 227.833,83.6667 226.5,85C 224.527,85.4955 222.527,85.6621 220.5,85.5C 220.5,83.8333 220.5,82.1667 220.5,80.5 Z"/></g>
<g><path style="opacity:1" fill="#d58353" d="M 59.5,82.5 C 61.5,83.8333 63.1667,85.5 64.5,87.5C 61.8333,86.8333 60.1667,85.1667 59.5,82.5 Z"/></g>
<g><path style="opacity:1" fill="#858687" d="M 254.5,76.5 C 259.494,75.8129 262.494,77.8129 263.5,82.5C 261.325,82.3178 259.325,81.6511 257.5,80.5C 256,80.4528 255,81.1195 254.5,82.5C 256.732,84.6451 259.399,86.1451 262.5,87C 265.677,95.4995 262.677,98.8328 253.5,97C 251.081,95.4912 250.081,93.3245 250.5,90.5C 251.552,90.3505 252.552,90.5172 253.5,91C 254.741,94.3491 256.908,95.1824 260,93.5C 260.49,92.2068 260.657,90.8734 260.5,89.5C 250.423,88.3664 248.423,84.033 254.5,76.5 Z"/></g>
<g><path style="opacity:1" fill="#fef0df" d="M 54.5,69.5 C 57.0237,71.8927 58.5237,74.8927 59,78.5C 60.5578,80.3589 62.3911,81.8589 64.5,83C 64.1667,83.3333 63.8333,83.6667 63.5,84C 66.0105,86.3435 68.3438,88.8435 70.5,91.5C 70.1667,91.5 69.8333,91.5 69.5,91.5C 67.8333,90.1667 66.1667,88.8333 64.5,87.5C 63.1667,85.5 61.5,83.8333 59.5,82.5C 58.1799,79.8599 56.8466,77.1932 55.5,74.5C 54.962,72.8828 54.6287,71.2161 54.5,69.5 Z"/></g>
<g><path style="opacity:1" fill="#818182" d="M 159.5,77.5 C 159.5,78.5 159.5,79.5 159.5,80.5C 156.5,80.5 153.5,80.5 150.5,80.5C 150.5,82.1667 150.5,83.8333 150.5,85.5C 153.167,85.5 155.833,85.5 158.5,85.5C 158.5,86.5 158.5,87.5 158.5,88.5C 155.833,88.5 153.167,88.5 150.5,88.5C 150.5,90.5 150.5,92.5 150.5,94.5C 153.5,94.5 156.5,94.5 159.5,94.5C 159.5,95.5 159.5,96.5 159.5,97.5C 155.5,97.5 151.5,97.5 147.5,97.5C 147.5,90.8333 147.5,84.1667 147.5,77.5C 151.5,77.5 155.5,77.5 159.5,77.5 Z"/></g>
<g><path style="opacity:1" fill="#838485" d="M 172.5,77.5 C 175.525,78.0332 176.858,79.8665 176.5,83C 176.775,86.0603 175.442,88.0603 172.5,89C 174.787,91.0698 176.453,93.5698 177.5,96.5C 176.277,97.6139 174.944,97.7805 173.5,97C 172.206,94.913 171.039,92.7463 170,90.5C 168.989,89.6634 167.822,89.33 166.5,89.5C 166.5,92.1667 166.5,94.8333 166.5,97.5C 165.5,97.5 164.5,97.5 163.5,97.5C 163.5,90.8333 163.5,84.1667 163.5,77.5C 166.5,77.5 169.5,77.5 172.5,77.5 Z"/></g>
<g><path style="opacity:1" fill="#f9f9fa" d="M 166.5,80.5 C 168.527,80.3379 170.527,80.5045 172.5,81C 173.833,82.3333 173.833,83.6667 172.5,85C 170.527,85.4955 168.527,85.6621 166.5,85.5C 166.5,83.8333 166.5,82.1667 166.5,80.5 Z"/></g>
<g><path style="opacity:1" fill="#838384" d="M 195.5,77.5 C 196.5,77.5 197.5,77.5 198.5,77.5C 198.5,84.1667 198.5,90.8333 198.5,97.5C 197.5,97.5 196.5,97.5 195.5,97.5C 195.5,90.8333 195.5,84.1667 195.5,77.5 Z"/></g>
<g><path style="opacity:1" fill="#b6b6b7" d="M 195.5,77.5 C 196.568,76.5655 197.901,76.2322 199.5,76.5C 199.825,83.6866 199.491,90.6866 198.5,97.5C 198.5,90.8333 198.5,84.1667 198.5,77.5C 197.5,77.5 196.5,77.5 195.5,77.5 Z"/></g>
<g><path style="opacity:1" fill="#848485" d="M 301.5,77.5 C 305.514,77.3345 309.514,77.5012 313.5,78C 316.366,82.221 315.699,85.8876 311.5,89C 313.291,91.414 314.957,93.914 316.5,96.5C 314.833,97.8333 313.167,97.8333 311.5,96.5C 310.687,92.4689 308.354,90.1356 304.5,89.5C 304.5,92.1667 304.5,94.8333 304.5,97.5C 303.5,97.5 302.5,97.5 301.5,97.5C 301.5,90.8333 301.5,84.1667 301.5,77.5 Z"/></g>
<g><path style="opacity:1" fill="#f5f5f7" d="M 304.5,80.5 C 306.833,80.5 309.167,80.5 311.5,80.5C 311.5,82.1667 311.5,83.8333 311.5,85.5C 309.167,85.5 306.833,85.5 304.5,85.5C 304.5,83.8333 304.5,82.1667 304.5,80.5 Z"/></g>
<g><path style="opacity:1" fill="#f4f5f7" d="M 239.5,83.5 C 241.614,84.784 242.614,86.784 242.5,89.5C 241.167,89.5 239.833,89.5 238.5,89.5C 238.833,87.5 239.167,85.5 239.5,83.5 Z"/></g>
<g><path style="opacity:1" fill="#ce8455" d="M 48.5,86.5 C 50.0269,86.427 51.0269,87.0937 51.5,88.5C 49.9731,88.573 48.9731,87.9063 48.5,86.5 Z"/></g>
<g><path style="opacity:1" fill="#828284" d="M 267.5,77.5 C 271.182,77.3347 274.848,77.5014 278.5,78C 282.603,86.6372 279.936,90.4705 270.5,89.5C 270.5,92.1667 270.5,94.8333 270.5,97.5C 269.5,97.5 268.5,97.5 267.5,97.5C 267.5,90.8333 267.5,84.1667 267.5,77.5 Z"/></g>
<g><path style="opacity:1" fill="#f5f5f7" d="M 270.5,80.5 C 273.604,79.9711 275.937,80.9711 277.5,83.5C 275.929,86.0934 273.596,87.0934 270.5,86.5C 270.5,84.5 270.5,82.5 270.5,80.5 Z"/></g>
<g><path style="opacity:1" fill="#cd743d" d="M 64.5,87.5 C 66.1667,88.8333 67.8333,90.1667 69.5,91.5C 67.7354,92.4614 65.7354,92.7947 63.5,92.5C 61.901,92.7678 60.5676,92.4345 59.5,91.5C 61.604,91.7989 63.604,91.4656 65.5,90.5C 64.8728,89.5832 64.5394,88.5832 64.5,87.5 Z"/></g>
<g><path style="opacity:1" fill="#e39f7a" d="M 69.5,91.5 C 69.8333,91.5 70.1667,91.5 70.5,91.5C 69.8478,92.7251 68.6811,93.3917 67,93.5C 65.6153,93.4857 64.4486,93.1524 63.5,92.5C 65.7354,92.7947 67.7354,92.4614 69.5,91.5 Z"/></g>
<g><path style="opacity:1" fill="#848485" d="M 287.5,76.5 C 296.863,77.1931 300.363,82.1931 298,91.5C 296.171,97.1582 292.337,98.9916 286.5,97C 285.333,95.8333 284.167,94.6667 283,93.5C 282.333,89.5 282.333,85.5 283,81.5C 284.025,79.313 285.525,77.6464 287.5,76.5 Z"/></g>
<g><path style="opacity:1" fill="#f7f7f7" d="M 288.5,80.5 C 294.795,80.9836 296.961,84.3169 295,90.5C 292.523,95.3681 289.523,95.7014 286,91.5C 284.813,87.2169 285.647,83.5503 288.5,80.5 Z"/></g>
<g><path style="opacity:1" fill="#f3fce9" d="M 111.5,85.5 C 109.456,88.2309 107.789,91.2309 106.5,94.5C 104.317,96.7843 101.65,98.1176 98.5,98.5C 98.5,98.1667 98.5,97.8333 98.5,97.5C 102.807,93.5282 107.141,89.5282 111.5,85.5 Z"/></g>
<g><path style="opacity:1" fill="#eafae0" d="M 87.5,96.5 C 82.4862,100.178 76.8195,102.511 70.5,103.5C 63.9779,103.823 57.6446,103.49 51.5,102.5C 58.175,102.666 64.8417,102.5 71.5,102C 76.7307,99.9531 82.064,98.1198 87.5,96.5 Z"/></g>
<g><path style="opacity:1" fill="#63a64e" d="M 95.5,89.5 C 93.5721,91.7808 92.5721,94.4475 92.5,97.5C 94.5,97.5 96.5,97.5 98.5,97.5C 98.5,97.8333 98.5,98.1667 98.5,98.5C 92.5374,102.795 87.204,107.795 82.5,113.5C 76.9738,113.821 71.6405,113.488 66.5,112.5C 71.544,112.827 76.544,112.494 81.5,111.5C 86.8296,108.492 86.663,105.825 81,103.5C 77.5418,104.286 74.0418,104.62 70.5,104.5C 70.5,104.167 70.5,103.833 70.5,103.5C 76.8195,102.511 82.4862,100.178 87.5,96.5C 90.1667,94.1667 92.8333,91.8333 95.5,89.5 Z"/></g>
<g><path style="opacity:1" fill="#74a65e" d="M 51.5,102.5 C 57.6446,103.49 63.9779,103.823 70.5,103.5C 70.5,103.833 70.5,104.167 70.5,104.5C 64.4632,104.171 58.4632,104.504 52.5,105.5C 52.8627,106.183 53.1961,106.85 53.5,107.5C 50.5881,106.571 47.9214,105.238 45.5,103.5C 44.1498,102.35 44.3164,101.683 46,101.5C 47.7659,102.233 49.5992,102.567 51.5,102.5 Z"/></g>
<g><path style="opacity:1" fill="#eef9e6" d="M 98.5,98.5 C 97.287,101.225 95.4536,103.559 93,105.5C 92.3164,107.479 92.8164,109.146 94.5,110.5C 92.6351,111.666 90.9684,111.333 89.5,109.5C 87.6001,111.616 85.2668,112.949 82.5,113.5C 87.204,107.795 92.5374,102.795 98.5,98.5 Z"/></g>
<g><path style="opacity:1" fill="#ecfbe0" d="M 45.5,103.5 C 47.9214,105.238 50.5881,106.571 53.5,107.5C 54.1667,108.167 54.8333,108.833 55.5,109.5C 52.2551,109.12 49.2551,107.953 46.5,106C 45.7476,105.329 45.4142,104.496 45.5,103.5 Z"/></g>
<g><path style="opacity:1" fill="#5ba947" d="M 66.5,112.5 C 62.6576,112.108 58.9909,111.108 55.5,109.5C 54.8333,108.833 54.1667,108.167 53.5,107.5C 53.1961,106.85 52.8627,106.183 52.5,105.5C 58.4632,104.504 64.4632,104.171 70.5,104.5C 74.0418,104.62 77.5418,104.286 81,103.5C 86.663,105.825 86.8296,108.492 81.5,111.5C 76.544,112.494 71.544,112.827 66.5,112.5 Z"/></g>
<g><path style="opacity:1" fill="#f2f9ea" d="M 55.5,109.5 C 58.9909,111.108 62.6576,112.108 66.5,112.5C 71.6405,113.488 76.9738,113.821 82.5,113.5C 81.0003,115.179 79.167,116.512 77,117.5C 76.5,117 76,116.5 75.5,116C 70.048,114.723 64.7147,113.89 59.5,113.5C 58.3044,113.846 58.3044,114.346 59.5,115C 58.175,114.852 57.0084,115.018 56,115.5C 55.5,115 55,114.5 54.5,114C 55.3802,112.644 55.7135,111.144 55.5,109.5 Z"/></g>
</svg>
